<svg width="78" height="42" viewBox="0 0 78 42" fill="none" xmlns="http://www.w3.org/2000/svg">
<g id="Icon">
<g id="Clip path group">
<mask id="mask0_1001_389" style="mask-type:luminance" maskUnits="userSpaceOnUse" x="5" y="11" width="69" height="19">
<g id="clip0_304_11924">
<path id="Vector" d="M73.8885 11.2812H5.02734V29.4764H73.8885V11.2812Z" fill="white"/>
</g>
</mask>
<g mask="url(#mask0_1001_389)">
<g id="Group">
<path id="Vector_2" d="M29.9373 15.5127C30.5708 15.5127 31.09 15.5891 31.5055 15.7418C31.9209 15.8945 32.2636 16.1018 32.5129 16.3854C32.7621 16.669 32.9387 17.0072 33.053 17.4108C33.1567 17.8144 33.2086 18.2617 33.2086 18.7416V23.3885C32.9074 23.454 32.4817 23.5413 31.9417 23.6394C31.4017 23.7376 30.7369 23.7813 29.9684 23.7813C29.4804 23.7813 29.0442 23.7376 28.6495 23.6503C28.255 23.5631 27.9122 23.4104 27.6318 23.2031C27.341 22.9959 27.1229 22.7341 26.9776 22.3959C26.8217 22.0686 26.749 21.6651 26.749 21.185C26.749 20.727 26.8321 20.3342 27.0087 20.018C27.1853 19.7016 27.4241 19.4398 27.7149 19.2544C28.0057 19.0688 28.3485 18.927 28.7327 18.8398C29.1169 18.7525 29.5115 18.7089 29.9166 18.7089C30.1969 18.7089 30.4357 18.7198 30.6539 18.7416C30.872 18.7635 31.0381 18.7962 31.1732 18.8398V18.6325C31.1732 18.2507 31.059 17.9453 30.8409 17.7162C30.6227 17.4871 30.2385 17.3671 29.6985 17.3671C29.3349 17.3671 28.9819 17.3999 28.6288 17.4544C28.2757 17.509 27.9745 17.5854 27.7149 17.6835L27.4449 15.8837C27.5695 15.84 27.7252 15.7964 27.9122 15.7527C28.0991 15.7091 28.2964 15.6654 28.5146 15.6327C28.7327 15.6 28.9611 15.5673 29.2104 15.5455C29.4493 15.5346 29.6881 15.5127 29.9373 15.5127ZM30.1138 22.0577C30.3215 22.0577 30.5189 22.0577 30.7162 22.0469C30.9031 22.0359 31.059 22.025 31.1732 22.0032V20.3124C31.09 20.2906 30.9551 20.2688 30.7889 20.2469C30.6124 20.2252 30.4566 20.2142 30.3215 20.2142C30.1243 20.2142 29.9373 20.2252 29.7607 20.2469C29.5842 20.2688 29.4284 20.3233 29.2934 20.3888C29.1584 20.4542 29.0546 20.5524 28.9819 20.6724C28.9092 20.7924 28.8676 20.9451 28.8676 21.1196C28.8676 21.4687 28.9819 21.7087 29.2 21.8505C29.4181 21.9923 29.7192 22.0577 30.1138 22.0577Z" fill="white"/>
<path id="Vector_3" d="M37.0862 13.4508C37.0862 13.8653 36.9617 14.1816 36.7124 14.4216C36.4631 14.6616 36.1619 14.7707 35.8192 14.7707C35.4765 14.7707 35.1754 14.6506 34.9261 14.4216C34.6768 14.1816 34.5522 13.8653 34.5522 13.4508C34.5522 13.0362 34.6768 12.7199 34.9261 12.48C35.1754 12.2399 35.4765 12.1309 35.8192 12.1309C36.1619 12.1309 36.4631 12.2509 36.7124 12.48C36.9617 12.709 37.0862 13.0362 37.0862 13.4508ZM36.8889 23.6173H34.7599V15.7306H36.8889V23.6173Z" fill="white"/>
<path id="Vector_4" d="M43.242 17.7054C43.055 17.6509 42.8266 17.6072 42.5669 17.5526C42.3073 17.4982 42.0372 17.4653 41.736 17.4653C41.6011 17.4653 41.4453 17.4763 41.2583 17.4982C41.0715 17.5199 40.9364 17.5526 40.8326 17.5854V23.6177H38.7036V16.1454C39.0878 16.0037 39.5344 15.8728 40.0537 15.7528C40.5729 15.6328 41.1545 15.5674 41.788 15.5674C41.9023 15.5674 42.0372 15.5782 42.2034 15.5892C42.3696 15.6001 42.5254 15.6219 42.6915 15.6546C42.8577 15.6765 43.0134 15.7092 43.1797 15.7419C43.3458 15.7746 43.4808 15.8182 43.5951 15.8728L43.242 17.7054Z" fill="white"/>
<path id="Vector_5" d="M51.7027 19.68C51.7027 20.3126 51.6196 20.8798 51.443 21.3926C51.2665 21.9052 51.0068 22.3415 50.6745 22.7015C50.3422 23.0615 49.9268 23.3342 49.4491 23.5306C48.9609 23.7269 48.4105 23.8251 47.7875 23.8251C47.5277 23.8251 47.2577 23.8141 46.9774 23.7924C46.6969 23.7706 46.4166 23.7378 46.1465 23.6941C45.8766 23.6506 45.6168 23.6069 45.3677 23.5523C45.1184 23.4978 44.9004 23.4433 44.7134 23.3779V13.6039L46.8423 11.8477V15.9165C47.0811 15.8075 47.3304 15.7202 47.59 15.6657C47.8496 15.6001 48.1197 15.5784 48.4209 15.5784C48.9506 15.5784 49.4282 15.6765 49.8333 15.8729C50.2383 16.0692 50.5811 16.342 50.8614 16.7019C51.1419 17.0619 51.3495 17.4982 51.4949 18C51.63 18.4909 51.7027 19.0581 51.7027 19.68ZM49.5321 19.6144C49.5321 18.1745 49.0233 17.4546 48.0159 17.4546C47.7977 17.4546 47.5798 17.4873 47.3616 17.5419C47.1435 17.6073 46.9774 17.6728 46.8423 17.7709V21.8398C46.9462 21.8616 47.0811 21.8725 47.2474 21.8943C47.4135 21.9052 47.59 21.9161 47.777 21.9161C48.3585 21.9161 48.7948 21.7089 49.096 21.2834C49.3763 20.858 49.5321 20.3017 49.5321 19.6144Z" fill="white"/>
<path id="Vector_6" d="M55.6912 15.5127C56.3248 15.5127 56.844 15.5891 57.2595 15.7418C57.6749 15.8945 58.0175 16.1018 58.2668 16.3854C58.516 16.669 58.6925 17.0072 58.8068 17.4108C58.9107 17.8144 58.9625 18.2617 58.9625 18.7416V23.3885C58.6614 23.454 58.2357 23.5413 57.6956 23.6394C57.1555 23.7376 56.4909 23.7813 55.7224 23.7813C55.2343 23.7813 54.798 23.7376 54.4034 23.6503C54.0088 23.5631 53.6661 23.4104 53.3858 23.2031C53.0949 22.9959 52.8769 22.7341 52.7315 22.3959C52.5757 22.0686 52.5029 21.6651 52.5029 21.185C52.5029 20.727 52.5861 20.3342 52.7626 20.018C52.9392 19.7016 53.1781 19.4398 53.4688 19.2544C53.7596 19.0688 54.1023 18.927 54.4866 18.8398C54.8708 18.7525 55.2655 18.7089 55.6705 18.7089C55.9509 18.7089 56.1897 18.7198 56.4078 18.7416C56.6259 18.7635 56.7921 18.7962 56.9271 18.8398V18.6325C56.9271 18.2507 56.8129 17.9453 56.5948 17.7162C56.3766 17.4871 55.9924 17.3671 55.4523 17.3671C55.0889 17.3671 54.7358 17.3999 54.3827 17.4544C54.0296 17.509 53.7284 17.5854 53.4688 17.6835L53.1988 15.8837C53.3234 15.84 53.4792 15.7964 53.6661 15.7527C53.8531 15.7091 54.0503 15.6654 54.2685 15.6327C54.4866 15.6 54.715 15.5673 54.9643 15.5455C55.2032 15.5346 55.442 15.5127 55.6912 15.5127ZM55.8677 22.0577C56.0754 22.0577 56.2729 22.0577 56.4701 22.0469C56.6571 22.0359 56.8129 22.025 56.9271 22.0032V20.3124C56.844 20.2906 56.7089 20.2688 56.5428 20.2469C56.3664 20.2252 56.2105 20.2142 56.0754 20.2142C55.8782 20.2142 55.6912 20.2252 55.5147 20.2469C55.3381 20.2688 55.1823 20.3233 55.0474 20.3888C54.9123 20.4542 54.8085 20.5524 54.7358 20.6724C54.6631 20.7924 54.6216 20.9451 54.6216 21.1196C54.6216 21.4687 54.7358 21.7087 54.9539 21.8505C55.1616 21.9923 55.4732 22.0577 55.8677 22.0577Z" fill="white"/>
<path id="Vector_7" d="M62.7457 22.014C63.1404 22.014 63.4105 21.9703 63.5766 21.8939C63.7427 21.8176 63.8154 21.6539 63.8154 21.4248C63.8154 21.2394 63.7117 21.0867 63.5038 20.9559C63.2961 20.8249 62.9742 20.6722 62.5485 20.4977C62.2161 20.3667 61.915 20.2358 61.6449 20.0941C61.3749 19.9522 61.1465 19.7886 60.9491 19.5923C60.7622 19.3959 60.6064 19.1669 60.5025 18.8941C60.3987 18.6214 60.3467 18.2942 60.3467 17.9233C60.3467 17.1815 60.6064 16.5925 61.136 16.167C61.6553 15.7416 62.3823 15.5234 63.2961 15.5234C63.7531 15.5234 64.1892 15.5671 64.6151 15.6544C65.0304 15.7416 65.3628 15.8289 65.6121 15.9271L65.2382 17.6724C64.989 17.5852 64.719 17.4979 64.4281 17.4324C64.1373 17.3669 63.8154 17.3234 63.4519 17.3234C62.7873 17.3234 62.455 17.5196 62.455 17.9124C62.455 17.9997 62.4653 18.0869 62.4965 18.1524C62.5276 18.2178 62.5796 18.2942 62.673 18.3596C62.7562 18.4251 62.8704 18.4906 63.0262 18.5669C63.1716 18.6433 63.3584 18.7305 63.5869 18.8178C64.0543 19.0032 64.4385 19.1778 64.7397 19.3523C65.0409 19.5269 65.2798 19.7232 65.4563 19.9195C65.6328 20.1268 65.7575 20.3558 65.8302 20.5958C65.9029 20.8468 65.934 21.1303 65.934 21.4685C65.934 22.2429 65.6536 22.832 65.1032 23.2357C64.5424 23.6392 63.7531 23.8356 62.7353 23.8356C62.0707 23.8356 61.5098 23.7701 61.0737 23.6501C60.6271 23.5302 60.3259 23.432 60.1494 23.3448L60.5025 21.534C60.866 21.6866 61.2399 21.8067 61.6138 21.883C61.998 21.9703 62.3718 22.014 62.7457 22.014Z" fill="white"/>
<path id="Vector_8" d="M66.6797 19.7343C66.6797 19.0361 66.7835 18.4252 66.9912 17.8908C67.1989 17.3671 67.4689 16.9308 67.8013 16.5817C68.1336 16.2326 68.5178 15.9709 68.9541 15.7854C69.3903 15.6 69.8368 15.5127 70.2938 15.5127C71.3634 15.5127 72.2046 15.8508 72.8277 16.5381C73.4509 17.2253 73.752 18.229 73.752 19.5597C73.752 19.6906 73.752 19.8324 73.7417 19.9851C73.7313 20.1379 73.7208 20.2797 73.7105 20.3996H68.8814C68.9333 20.8578 69.1307 21.2288 69.494 21.4905C69.8576 21.7632 70.3457 21.8941 70.9481 21.8941C71.3426 21.8941 71.7269 21.8614 72.1008 21.7851C72.4746 21.7087 72.7862 21.6214 73.0251 21.5123L73.3158 23.3231C73.2016 23.3885 73.0459 23.4431 72.8589 23.5085C72.672 23.574 72.4539 23.6177 72.2254 23.6613C71.9969 23.7049 71.7373 23.7486 71.4777 23.7703C71.2077 23.8032 70.9481 23.814 70.6781 23.814C70.0029 23.814 69.411 23.7049 68.9125 23.4977C68.4141 23.2904 67.9987 22.9959 67.6663 22.6359C67.334 22.2759 67.0951 21.8396 66.9393 21.3379C66.7524 20.8578 66.6797 20.3124 66.6797 19.7343ZM71.675 18.8834C71.6646 18.698 71.6335 18.5125 71.5815 18.3271C71.5296 18.1417 71.4465 17.9889 71.3426 17.8472C71.2284 17.7053 71.0935 17.5962 70.9273 17.4981C70.7611 17.4108 70.5534 17.3671 70.3041 17.3671C70.0653 17.3671 69.8576 17.4108 69.6915 17.4981C69.5149 17.5854 69.3798 17.6944 69.2656 17.8362C69.1514 17.978 69.0683 18.1417 69.006 18.3271C68.9437 18.5125 68.9021 18.698 68.8709 18.8943H71.675V18.8834Z" fill="white"/>
<path id="Vector_9" d="M11.0643 29.8465L4.39697 23.9451V13.6039L11.1163 19.549L20.6707 11.6514L20.6811 21.8943L11.0643 29.8465ZM11.1163 26.2686L18.0328 20.5526V17.3782L11.0643 23.1378L7.04521 19.5817V22.6579L11.1163 26.2686Z" fill="white"/>
</g>
</g>
</g>
</g>
</svg>
