<svg width="97" height="55" viewBox="0 0 97 55" fill="none" xmlns="http://www.w3.org/2000/svg">
<g id="Icon" clip-path="url(#clip0_1001_342)">
<g id="Clip path group">
<mask id="mask0_1001_342" style="mask-type:luminance" maskUnits="userSpaceOnUse" x="0" y="0" width="97" height="55">
<g id="clip0_304_12131">
<path id="Vector" d="M96.5522 0.015625H0.552246V54.0156H96.5522V0.015625Z" fill="white"/>
</g>
</mask>
<g mask="url(#mask0_1001_342)">
<g id="Group">
<path id="Vector_2" d="M32.5986 34.0326V30.3691H33.0987L34.5218 33.2105H34.5602V30.3691H34.8807V34.0326H34.5858L32.9192 30.7586V34.0326H32.5986Z" fill="white"/>
<path id="Vector_3" d="M44.9172 30.3691V30.701H43.3146V31.9269H44.4428V32.273H43.3146V33.6721H45.007V34.0326H42.9556V30.3691H44.9172Z" fill="white"/>
<path id="Vector_4" d="M53.762 30.701V34.0326H53.4031V30.701H52.4287V30.3691H54.7493V30.701H53.762Z" fill="white"/>
<path id="Vector_5" d="M62.0898 30.3691H62.436L63.0387 33.297L63.6926 30.3691H64.0131L64.6668 33.297L65.2695 30.3691H65.6157L64.8207 34.0326H64.5258L63.8336 31.0616L63.2181 34.0326H62.8848L62.0898 30.3691Z" fill="white"/>
<path id="Vector_6" d="M74.3382 33.7445C74.9024 33.7445 75.2614 33.2397 75.2614 32.2156C75.2614 31.1917 74.9409 30.6724 74.3382 30.6724C73.7357 30.6724 73.4152 31.1772 73.4152 32.2156C73.4152 33.2542 73.7741 33.7445 74.3382 33.7445ZM74.3382 30.3262C75.1331 30.3262 75.6203 30.9897 75.6203 32.2012C75.6203 33.4128 75.146 34.0762 74.3382 34.0762C73.5305 34.0762 73.0562 33.4128 73.0562 32.2012C73.0562 30.9897 73.5305 30.3262 74.3382 30.3262Z" fill="white"/>
<path id="Vector_7" d="M83.7909 32.0279H84.4447C84.9448 32.0279 85.1884 31.8259 85.1884 31.3644C85.1884 30.9028 84.8935 30.7297 84.4192 30.7297H83.7524L83.7909 32.0279ZM83.4062 34.0326V30.3691H84.4447C85.15 30.3691 85.5474 30.7297 85.5474 31.3355C85.5474 31.7826 85.2781 32.1865 84.8935 32.3019L85.573 34.0326H85.1884L84.5345 32.3596H83.7653V34.0326H83.4062Z" fill="white"/>
<path id="Vector_8" d="M93.9748 34.0326H93.6157V30.3691H93.9748V32.273L95.3466 30.3691H95.7569L94.744 31.7394L95.8722 34.0326H95.4619L94.5132 32.0711L93.9748 32.8067V34.0326Z" fill="white"/>
<path id="Vector_9" d="M34.992 25.7825C35.7355 25.7825 36.056 25.5085 36.056 24.9172C36.056 24.3259 35.7355 24.0085 34.9278 24.0085H34.0945V25.7825H34.992ZM34.7868 22.5806C35.4406 22.5806 35.7099 22.3786 35.7099 21.8739C35.7099 21.3691 35.4663 21.2105 34.7355 21.2105H34.1073V22.5806H34.7868ZM35.0304 19.7393C36.492 19.7393 37.1971 20.345 37.1971 21.5422C37.1971 22.22 36.8382 22.8402 36.274 23.1143C37.1715 23.4172 37.6714 24.1239 37.6714 25.0903C37.6714 26.4893 36.8125 27.3259 35.3253 27.3259H32.5303V19.7393H35.0304Z" fill="white"/>
<path id="Vector_10" d="M40.6759 25.7825H43.1375V27.3259H39.1631V19.7393H40.6759V25.7825Z" fill="white"/>
<path id="Vector_11" d="M48.0332 23.0422C48.0332 23.0134 47.969 22.8691 47.9178 22.6816L47.8025 22.2778C47.687 21.9172 47.6485 21.6721 47.5589 21.3402C47.5332 21.4268 47.5075 21.5133 47.4947 21.6143L47.4306 21.9172C47.3153 22.422 47.2767 22.4509 47.1101 23.0855L46.9562 23.6192H48.1999L48.0332 23.0422ZM48.4435 19.7393L50.9435 27.3259H49.3153L48.5973 25.0182H46.5459L45.828 27.3547H44.1997L46.6614 19.7393H48.4435Z" fill="white"/>
<path id="Vector_12" d="M56.5554 21.5418C56.1451 21.3111 55.7092 21.1669 55.2476 21.138C54.1579 21.066 53.2092 22.0034 53.1451 23.2293C53.1451 23.2582 53.1451 23.2871 53.1451 23.3016V23.5323C53.1451 24.9313 54.004 25.9409 55.1964 25.9409C55.6707 25.9409 56.1451 25.8111 56.5682 25.537V27.1813C56.1194 27.3833 55.6323 27.4843 55.1451 27.4843C53.0682 27.4843 51.5809 25.8111 51.5809 23.5034C51.5552 21.3832 53.0553 19.6236 54.9528 19.5947H54.9656H55.0809C55.581 19.6092 56.081 19.6813 56.5682 19.8256L56.5554 21.5418Z" fill="white"/>
<path id="Vector_13" d="M60.0566 19.7393V22.8547L62.3131 19.7393H64.0951L61.5437 23.1431L64.1207 27.3259H62.3131L60.0566 23.5758V27.3259H58.5181V19.7393H60.0566Z" fill="white"/>
<path id="Vector_14" d="M71.2207 27.3259H69.6694V23.9509H67.118V27.3259H65.5796V19.7393H67.118V22.4075H69.6694V19.7393H71.2207V27.3259Z" fill="white"/>
<path id="Vector_15" d="M76.2349 23.0422C76.2349 23.0134 76.1709 22.8691 76.1196 22.6816L76.0042 22.2489C75.9016 21.9461 75.8247 21.6287 75.7734 21.3115C75.7477 21.398 75.7222 21.4845 75.7093 21.5855L75.6453 21.8883C75.5298 22.3931 75.4913 22.422 75.3247 23.0566L75.1452 23.5903H76.3888L76.2349 23.0422ZM76.6581 19.7393L79.1581 27.3259H77.5299L76.8119 25.0182H74.7606L74.0427 27.3547H72.4399L74.9016 19.7681L76.6581 19.7393Z" fill="white"/>
<path id="Vector_16" d="M81.0583 19.7391L81.8916 23.0853L81.9813 23.4459C82.0968 23.9218 82.1865 24.4122 82.2506 24.917C82.3019 24.3112 82.4045 23.7055 82.5455 23.1141L83.2891 19.7679H85.007L85.7507 23.215C85.8661 23.7055 85.9559 24.2103 86.0199 24.715L86.0456 24.917C86.1225 24.3401 86.2379 23.7776 86.3661 23.215L87.2635 19.7679H88.8918L86.8661 27.3545H85.1737L84.4302 23.9073C84.2891 23.2871 84.1866 22.6669 84.1352 22.0324L84.1097 22.3063C84.0455 22.84 83.9558 23.3881 83.8404 23.9073L83.0967 27.3112H81.4301L79.4429 19.7246L81.0583 19.7391Z" fill="white"/>
<path id="Vector_17" d="M91.8668 19.7393V22.8547L94.1233 19.7393H95.9054L93.3412 23.1431L95.931 27.3259H94.1233L91.8668 23.5758V27.3259H90.3154V19.7393H91.8668Z" fill="white"/>
<path id="Vector_18" d="M4.05526 19.6671L4.0809 19.7393C8.4528 18.1384 15.1325 18.2392 17.6581 21.0374C16.1197 23.6047 8.95281 28.624 1.23468 31.6239L1.29878 31.595C1.06801 31.696 0.824413 31.7682 0.580817 31.8691C0.491072 31.9413 0.580817 31.999 0.644922 31.999C4.95272 30.9893 17.4273 26.7489 21.6455 19.7393C18.812 16.4941 11.0554 15.4557 4.05526 19.6671Z" fill="white"/>
<path id="Vector_19" d="M29.8042 26.0276C27.6375 23.518 21.881 22.9267 16.7654 25.9555L16.7398 26.0565L16.8296 26.0853C20.0348 24.917 24.9067 25.018 26.7786 27.0228C26.2785 27.8305 25.1118 28.8979 23.4836 30.0661C20.304 29.2295 15.945 29.6333 11.8679 32.0709L11.8935 32.143C14.5603 31.1478 18.2527 30.9026 20.9835 31.7103C18.9578 32.9362 16.8552 33.9748 14.6884 34.8113L14.2141 34.9843L14.15 35.0566V35.0853L14.2654 35.1574C17.009 34.4796 19.6758 33.4843 22.2528 32.2151C22.7912 32.4748 23.2784 32.8354 23.7015 33.2825C22.3425 35.518 15.7783 39.3258 8.91911 41.4604H8.98321L8.32935 41.6622C8.23961 41.6911 8.32935 41.7632 8.39346 41.7632C12.2269 41.1575 23.5348 38.2872 27.1887 32.1719C26.5734 31.494 25.8426 30.9747 25.0477 30.6286C27.0093 29.3594 28.7272 27.8593 29.8042 26.0853V26.0276Z" fill="white"/>
</g>
</g>
</g>
</g>
<defs>
<clipPath id="clip0_1001_342">
<rect width="96" height="54" fill="white" transform="translate(0.552246 0.015625)"/>
</clipPath>
</defs>
</svg>
