<svg width="81" height="42" viewBox="0 0 81 42" fill="none" xmlns="http://www.w3.org/2000/svg">
<g id="Icon">
<path id="Vector" d="M49.4644 15.2901C48.4121 15.2901 47.6008 15.6654 46.848 16.4484V15.473H44.7815V25.0745H47.0055V19.506C47.0055 18.231 47.7645 17.4247 48.9152 17.4247C49.1241 17.4247 49.3078 17.4507 49.4384 17.4761L50.9815 15.4469C50.3801 15.3415 49.857 15.2901 49.4644 15.2901ZM68.6399 15.4721H66.0756L63.708 18.6038L61.3405 15.4721H58.7762L62.3937 20.3108L58.7762 25.0745H61.3918L63.6942 22.0369L65.9964 25.0745H68.639L64.9989 20.3177L68.6399 15.4721ZM21.9443 13.3123C21.1852 14.327 21.0025 14.6649 20.2696 14.6649H9.33447V27.675H13.6248C14.5927 27.675 15.5345 27.2064 16.136 26.4261C16.9211 25.3853 17.0255 25.0736 17.7837 25.0736H28.7449V12.0635H24.4285C23.4606 12.0635 22.5196 12.532 21.9443 13.3123ZM25.3442 21.7172H20.7657C19.7717 21.7172 18.856 22.1335 18.2546 22.9399C17.4694 23.9806 17.3127 24.2933 16.5799 24.2933H12.7091V18.0482H17.2875C18.2815 18.0482 19.1972 17.5796 19.7987 16.7993C20.5838 15.7848 20.7927 15.4721 21.4987 15.4721H25.3442V21.7172ZM41.7733 18.5167C42.7422 17.9707 43.4211 17.0075 43.4211 15.7325C43.4211 13.8592 41.9823 12.0635 39.8897 12.0635H33.6114V25.0736H39.8897C42.1651 25.0736 43.7353 23.4599 43.7353 21.4307C43.7353 20.2341 43.1861 19.1925 41.7733 18.5167ZM35.8354 14.0926H39.707C40.6749 14.0926 41.2503 15.0036 41.2503 15.81C41.2503 16.7993 40.3868 17.4751 39.5764 17.4751H35.8354V14.0926ZM39.5756 23.0436H35.8345V19.5043H39.7062C40.7002 19.5043 41.5114 20.363 41.5114 21.2479C41.5114 22.2372 40.4921 23.0436 39.5756 23.0436Z" fill="white"/>
<path id="Vector_2" d="M56.5541 22.3145C56.1876 22.8875 55.4817 23.2254 54.6966 23.2254C53.4675 23.2254 52.4474 22.3928 52.4474 21.1178H59.0923C59.1967 20.7277 59.2228 20.5457 59.2228 20.2068C59.2228 17.2929 57.4176 15.2891 54.6975 15.2891C52.0288 15.2891 50.146 17.1884 50.146 20.2844C50.146 23.3028 51.9504 25.2546 54.7497 25.2546C56.7116 25.2546 58.4385 24.2922 58.9355 22.3145H56.5541ZM54.6966 17.319C55.9265 17.319 56.8683 18.0993 56.8422 19.2707H52.4736C52.4727 18.1263 53.4675 17.319 54.6966 17.319Z" fill="white"/>
</g>
</svg>
