<svg width="89" height="55" viewBox="0 0 89 55" fill="none" xmlns="http://www.w3.org/2000/svg">
<g id="Icon">
<g id="Clip path group">
<mask id="mask0_1001_333" style="mask-type:luminance" maskUnits="userSpaceOnUse" x="2" y="14" width="85" height="21">
<g id="clip0_304_12001">
<path id="Vector" d="M86.7263 14.1758H2.39307V34.7869H86.7263V14.1758Z" fill="white"/>
</g>
</mask>
<g mask="url(#mask0_1001_333)">
<g id="Group">
<path id="Vector_2" d="M61.0708 28.9215C60.9272 28.9007 60.7922 28.8385 60.6654 28.7142C60.5388 28.5898 60.4798 28.4344 60.4798 28.2375V25.1805H62.16V23.4915H60.4798V21.3672L58.9092 21.9164V23.4812H57.9214V25.1703H58.9092V28.2479C58.9092 30.3412 60.1082 30.7867 61.0792 30.7867C61.4338 30.7867 61.8222 30.7142 62.2444 30.5691V28.7453C61.8897 28.8903 61.5773 28.9318 61.3325 28.9318C61.2987 28.9422 61.2143 28.9318 61.0708 28.9215Z" fill="white"/>
<path id="Vector_3" d="M8.93675 22.7145C9.13095 22.7145 9.32515 22.7353 9.5109 22.7768L11.1827 19.2327C10.4819 18.9218 9.73043 18.7354 8.93675 18.7354H5.63536V14.1758H2.39307V26.7559C2.39307 27.616 2.50284 28.445 2.70548 29.2222C3.08543 30.6833 3.80312 31.958 4.74035 32.9114L6.41216 29.3569C5.93088 28.6522 5.63536 27.7404 5.63536 26.7456C5.63536 24.528 7.11296 22.7145 8.93675 22.7145Z" fill="white"/>
<path id="Vector_4" d="M12.9857 20.4658L11.3308 23.9892C11.8882 24.7145 12.2259 25.6886 12.2259 26.7663C12.2259 29.0046 10.7482 30.818 8.92445 30.818C8.6627 30.818 8.40941 30.7766 8.17298 30.7041L6.51807 34.2273C7.26109 34.5901 8.08011 34.7973 8.9329 34.7973C12.5467 34.7973 15.4766 31.2014 15.4766 26.7663C15.4766 24.2068 14.4971 21.9373 12.9857 20.4658Z" fill="white"/>
<path id="Vector_5" d="M25.6178 25.8233C25.8964 25.5953 26.116 25.3052 26.2848 24.9218C26.4537 24.5488 26.5297 24.1446 26.5297 23.7198C26.5297 22.9944 26.3103 22.4038 25.8711 21.9167C25.4321 21.44 24.8495 21.1913 24.1233 21.1913H20.5518V30.6419H24.402C25.1535 30.6419 25.753 30.4036 26.2005 29.9165C26.648 29.4398 26.8675 28.8284 26.8675 28.1031C26.8675 27.6264 26.7662 27.1809 26.5551 26.7767C26.3524 26.3725 26.04 26.0513 25.6178 25.8233ZM22.1476 23.0151H24.0727C24.3344 23.0151 24.554 23.1187 24.7144 23.326C24.8749 23.5332 24.9592 23.782 24.9592 24.0721C24.9592 24.3622 24.8749 24.6109 24.7144 24.8181C24.5455 25.0255 24.3344 25.129 24.0727 25.129H22.1476V23.0151ZM24.9339 28.5279C24.7651 28.7249 24.554 28.8284 24.2922 28.8284H22.1476V26.7663H24.2922C24.554 26.7663 24.7734 26.87 24.9339 27.0668C25.1028 27.274 25.1788 27.5125 25.1788 27.8026C25.1788 28.0824 25.1028 28.3207 24.9339 28.5279ZM31.7985 27.1809C31.7985 27.6782 31.6802 28.0927 31.4438 28.4244C31.2075 28.7663 30.8866 28.9321 30.4982 28.9321C30.1773 28.9321 29.9072 28.7974 29.6791 28.5177C29.4597 28.2378 29.3414 27.8752 29.3414 27.4296V23.4917H27.7456V27.9269C27.7456 28.787 27.982 29.4709 28.4633 29.989C28.9445 30.5072 29.5103 30.7662 30.1688 30.7662C30.819 30.7662 31.3594 30.5072 31.7985 29.989V30.6523H33.3943V23.5021H31.7985V27.1809ZM34.5763 23.4917H36.1722V30.6419H34.5763V23.4917ZM35.3954 20.6006C35.1252 20.6006 34.8887 20.7147 34.703 20.9425C34.5173 21.1706 34.4159 21.44 34.4159 21.7612C34.4159 22.0825 34.5088 22.3519 34.703 22.5798C34.8887 22.7974 35.1252 22.9115 35.3954 22.9115C35.6655 22.9115 35.8936 22.7974 36.0877 22.5696C36.282 22.3519 36.3748 22.0825 36.3748 21.7612C36.3748 21.44 36.282 21.1602 36.0877 20.9425C35.8936 20.7147 35.6655 20.6006 35.3954 20.6006ZM37.3373 21.2016H38.9332V30.6523H37.3373V21.2016ZM44.1935 24.1032C43.7459 23.6161 43.2141 23.3778 42.5892 23.3778C41.7955 23.3778 41.12 23.7302 40.5544 24.4451C39.9887 25.1602 39.7015 26.041 39.7015 27.0772C39.7015 28.072 39.9887 28.9321 40.5544 29.6679C41.12 30.3932 41.7955 30.756 42.5892 30.756C43.2141 30.756 43.7544 30.5279 44.1935 30.0513V30.6419H45.7893V21.2016H44.1935V24.1032ZM43.8389 28.414C43.5348 28.7974 43.1634 28.984 42.7412 28.984C42.3022 28.984 41.9306 28.7974 41.6351 28.414C41.3396 28.0306 41.1875 27.5849 41.1875 27.0668C41.1875 26.5487 41.3396 26.0928 41.6351 25.7094C41.9306 25.326 42.3022 25.1394 42.7412 25.1394C43.1634 25.1394 43.5348 25.3363 43.8389 25.7198C44.1513 26.1032 44.3032 26.5591 44.3032 27.0668C44.3032 27.5746 44.1428 28.0202 43.8389 28.414ZM51.5731 24.2068C51.0158 23.6473 50.3909 23.3674 49.6817 23.3674C48.8627 23.3674 48.1534 23.7198 47.5708 24.4347C46.9798 25.1498 46.6842 26.0306 46.6842 27.0668C46.6842 28.072 46.9713 28.9425 47.554 29.6679C48.1366 30.3932 48.8458 30.756 49.6817 30.756C50.239 30.756 50.7793 30.5902 51.3113 30.2481C51.8348 29.9061 52.2147 29.4606 52.4427 28.9113L51.0579 28.4244C50.7034 28.8284 50.239 29.0358 49.6817 29.0358C49.3271 29.0358 49.0232 28.9321 48.7698 28.7145C48.508 28.5073 48.3392 28.1964 48.2548 27.8026H52.6285C52.6707 27.5746 52.6961 27.3467 52.6961 27.098C52.6961 26.8492 52.6707 26.5799 52.6201 26.3104C52.4765 25.4607 52.1219 24.756 51.5731 24.2068ZM48.2548 26.3104C48.3477 25.9685 48.5165 25.6783 48.7698 25.4503C49.0232 25.2119 49.3271 25.098 49.6733 25.098C50.0279 25.098 50.3234 25.2119 50.5767 25.4503C50.83 25.6783 50.9989 25.9685 51.0834 26.3104H48.2548ZM72.192 24.2068C71.6431 23.6473 71.0099 23.3674 70.3007 23.3674C69.4816 23.3674 68.7724 23.7198 68.1898 24.4347C67.5988 25.1498 67.3032 26.0306 67.3032 27.0668C67.3032 28.072 67.5988 28.9425 68.1728 29.6679C68.7555 30.3932 69.4647 30.756 70.3007 30.756C70.858 30.756 71.3983 30.5902 71.9218 30.2481C72.4537 29.9061 72.8253 29.4606 73.0532 28.9113L71.6685 28.4244C71.3054 28.8284 70.8495 29.0358 70.2922 29.0358C69.9376 29.0358 69.6337 28.9321 69.3803 28.7145C69.1185 28.5073 68.9497 28.1964 68.8653 27.8026H73.239C73.2811 27.5746 73.3065 27.3467 73.3065 27.098C73.3065 26.8492 73.2811 26.5799 73.2305 26.3104C73.087 25.4607 72.7408 24.756 72.192 24.2068ZM68.8737 26.3104C68.9581 25.9685 69.1355 25.6783 69.3803 25.4503C69.6337 25.2119 69.9376 25.098 70.2922 25.098C70.6469 25.098 70.9423 25.2119 71.1957 25.4503C71.4405 25.6783 71.6094 25.9685 71.7023 26.3104H68.8737ZM79.1072 24.1446C78.6259 23.6265 78.0602 23.3674 77.4016 23.3674C76.7514 23.3674 76.2195 23.6265 75.7804 24.1446V23.4917H74.1847V30.6419H75.7804V26.9425C75.7804 26.4451 75.8987 26.0306 76.1351 25.699C76.3715 25.357 76.6839 25.1913 77.0723 25.1913C77.3932 25.1913 77.6633 25.326 77.8913 25.6057C78.1108 25.8856 78.2206 26.2482 78.2206 26.6938V30.6419H79.8165V26.1963C79.8249 25.3466 79.5884 24.6627 79.1072 24.1446ZM85.1274 21.2016V24.1032C84.6799 23.6161 84.1479 23.3778 83.5231 23.3778C82.7295 23.3778 82.054 23.7302 81.4882 24.4451C80.9225 25.1602 80.6439 26.041 80.6439 27.0772C80.6439 28.072 80.9225 28.9321 81.4967 29.6679C82.0624 30.3932 82.7378 30.756 83.5231 30.756C84.1564 30.756 84.6884 30.5279 85.1274 30.0513V30.6419H86.7231V21.2016H85.1274ZM84.7727 28.414C84.4603 28.7974 84.0972 28.984 83.675 28.984C83.236 28.984 82.8646 28.7974 82.569 28.414C82.2735 28.0306 82.13 27.5849 82.13 27.0668C82.13 26.5487 82.2735 26.0928 82.569 25.7094C82.8646 25.326 83.236 25.1394 83.675 25.1394C84.0972 25.1394 84.4688 25.3363 84.7727 25.7198C85.0851 26.1032 85.2372 26.5591 85.2372 27.0668C85.2372 27.5746 85.0851 28.0202 84.7727 28.414ZM56.7574 23.4089C56.0481 23.4089 55.5161 23.7612 55.1615 24.4451V23.4917H53.5657V30.6419H55.1615V27.0566C55.1615 25.8129 56.0481 25.1809 56.7574 25.1809C56.9178 25.1809 57.0866 25.2017 57.2639 25.2327V23.4607C57.0866 23.4296 56.9178 23.4089 56.7574 23.4089ZM66.3829 23.4089C65.6737 23.4089 65.1417 23.7612 64.787 24.4451V23.4917H63.1913V30.6419H64.787V27.0566C64.787 25.8129 65.6737 25.1809 66.3829 25.1809C66.5433 25.1809 66.7122 25.2017 66.8895 25.2327V23.4607C66.7206 23.4296 66.5518 23.4089 66.3829 23.4089Z" fill="white"/>
</g>
</g>
</g>
</g>
</svg>
