<svg width="115" height="28" viewBox="0 0 115 28" fill="none" xmlns="http://www.w3.org/2000/svg">
<g id="Icon" clip-path="url(#clip0_1001_428)">
<g id="Clip path group">
<mask id="mask0_1001_428" style="mask-type:luminance" maskUnits="userSpaceOnUse" x="0" y="0" width="114" height="28">
<g id="clip0_304_12068">
<path id="Vector" d="M113.617 0H0.224121V28H113.617V0Z" fill="white"/>
</g>
</mask>
<g mask="url(#mask0_1001_428)">
<g id="Group">
<path id="Vector_2" d="M46.2823 20.4146C44.873 20.4146 43.7045 20.1 42.7767 19.4708C41.8489 18.8416 41.2775 17.8914 41.0688 16.6169L43.2261 16.1C43.3449 16.7132 43.5472 17.2011 43.8329 17.5607C44.1186 17.9202 44.4749 18.1739 44.9019 18.3247C45.3289 18.4756 45.7879 18.5495 46.2823 18.5495C47.0175 18.5495 47.5825 18.4082 47.9773 18.1225C48.3754 17.8368 48.5712 17.4708 48.5712 17.0214C48.5712 16.5719 48.385 16.2413 48.0094 16.0326C47.6338 15.8239 47.0817 15.6506 46.3465 15.5158L45.5825 15.3809C44.8345 15.2461 44.1507 15.0503 43.5375 14.7966C42.9244 14.543 42.4364 14.1899 42.0768 13.7405C41.7173 13.291 41.5375 12.7132 41.5375 12.0101C41.5375 10.9604 41.926 10.1482 42.7061 9.57353C43.4862 8.99568 44.5167 8.70996 45.8072 8.70996C47.0977 8.70996 48.0736 8.98926 48.873 9.55426C49.6756 10.1161 50.1956 10.8769 50.4332 11.8336L48.2759 12.4403C48.1411 11.7662 47.8553 11.291 47.422 11.0149C46.9886 10.7389 46.4492 10.5976 45.804 10.5976C45.1587 10.5976 44.6804 10.7132 44.3208 10.9443C43.9613 11.1755 43.7815 11.5029 43.7815 11.9202C43.7815 12.3697 43.9581 12.7003 44.308 12.909C44.6611 13.1177 45.1362 13.275 45.7334 13.3809L46.5199 13.5158C47.3128 13.6506 48.0415 13.8368 48.6996 14.0775C49.3578 14.3183 49.8778 14.6618 50.2598 15.1113C50.6419 15.5607 50.8313 16.161 50.8313 16.909C50.8313 18.0166 50.4203 18.8801 49.5953 19.4933C48.7703 20.1064 47.6627 20.4146 46.2695 20.4146H46.2823Z" fill="white"/>
<path id="Vector_3" d="M55.9866 20.4143C55.1937 20.4143 54.4842 20.2795 53.8646 20.0098C53.2418 19.7402 52.7474 19.3421 52.3815 18.8188C52.0155 18.2955 51.8325 17.6567 51.8325 16.9087C51.8325 16.1607 52.0155 15.5122 52.3815 15.0114C52.7474 14.5106 53.2514 14.1318 53.8871 13.8782C54.5227 13.6246 55.245 13.4962 56.054 13.4962H59.4248V12.7771C59.4248 12.1318 59.229 11.615 58.8405 11.2265C58.4521 10.8381 57.8518 10.6422 57.0428 10.6422C56.2338 10.6422 55.6431 10.8284 55.2226 11.204C54.802 11.5796 54.5259 12.0644 54.3911 12.6647L52.2338 11.9681C52.4136 11.3678 52.7025 10.8252 53.0973 10.3405C53.4954 9.85254 54.0219 9.46088 54.68 9.16233C55.3381 8.86377 56.1343 8.71289 57.062 8.71289C58.5002 8.71289 59.6303 9.07886 60.4553 9.81401C61.2803 10.5491 61.6912 11.5893 61.6912 12.9376V17.4994C61.6912 17.9488 61.8999 18.1735 62.3205 18.1735H63.2643V20.1061H61.5339C61.0107 20.1061 60.5837 19.9713 60.253 19.7016C59.9224 19.432 59.7587 19.066 59.7587 18.6005V18.5331H59.4216C59.3028 18.7578 59.123 19.0211 58.8823 19.3196C58.6415 19.6182 58.2916 19.8782 57.8261 20.0933C57.3606 20.3116 56.7474 20.4175 55.9834 20.4175L55.9866 20.4143ZM56.3237 18.5042C57.2514 18.5042 58.0026 18.2377 58.5709 17.7048C59.1391 17.1719 59.4248 16.4432 59.4248 15.5154V15.2907H56.1888C55.5757 15.2907 55.0813 15.4223 54.7057 15.6824C54.3301 15.9456 54.1439 16.3308 54.1439 16.8381C54.1439 17.3453 54.3397 17.753 54.7282 18.0516C55.1166 18.3501 55.6495 18.501 56.3237 18.501V18.5042Z" fill="white"/>
<path id="Vector_4" d="M64.616 20.0999V9.02443H66.8856V10.3278H67.2452C67.425 9.86231 67.7139 9.52202 68.1088 9.30693C68.5068 9.08864 68.9948 8.97949 69.5791 8.97949H70.9049V11.0694H69.4892C68.7412 11.0694 68.1248 11.2749 67.6465 11.6858C67.1681 12.0967 66.9274 12.7291 66.9274 13.5831V20.0999H64.6128H64.616Z" fill="white"/>
<path id="Vector_5" d="M76.5906 20.4148C75.6757 20.4148 74.8314 20.1901 74.0513 19.7406C73.2712 19.2912 72.6484 18.6427 72.1765 17.7984C71.7045 16.9509 71.4702 15.93 71.4702 14.7326V14.3955C71.4702 13.2109 71.7013 12.1933 72.1668 11.3393C72.6323 10.4854 73.2519 9.83372 74.032 9.38428C74.8121 8.93484 75.666 8.71012 76.5938 8.71012C77.3129 8.71012 77.9164 8.80001 78.4012 8.97979C78.8891 9.15956 79.2872 9.38749 79.6018 9.66358C79.9164 9.93966 80.1572 10.2286 80.3209 10.5271H80.6805V4.37305H82.9951V20.1002H80.7254V18.5271H80.3659C80.0801 19.0055 79.65 19.4421 79.0753 19.8305C78.4975 20.2189 77.6724 20.4148 76.5938 20.4148H76.5906ZM77.2423 18.3923C78.2471 18.3923 79.0721 18.0713 79.7238 17.426C80.3755 16.7807 80.6997 15.8594 80.6997 14.662V14.4597C80.6997 13.2783 80.3787 12.3634 79.7334 11.7181C79.0882 11.0729 78.2567 10.7518 77.2391 10.7518C76.2214 10.7518 75.4317 11.0729 74.78 11.7181C74.1283 12.3634 73.8041 13.2751 73.8041 14.4597V14.662C73.8041 15.8594 74.1283 16.7807 74.78 17.426C75.4317 18.0713 76.2503 18.3923 77.2391 18.3923H77.2423Z" fill="white"/>
<path id="Vector_6" d="M86.6806 7.51855C86.2312 7.51855 85.8524 7.37088 85.5474 7.08196C85.2392 6.78982 85.0884 6.41101 85.0884 5.94873C85.0884 5.48645 85.2424 5.10764 85.5474 4.8155C85.8556 4.52337 86.2312 4.37891 86.6806 4.37891C87.1301 4.37891 87.5282 4.52337 87.8267 4.8155C88.1253 5.10764 88.2762 5.48645 88.2762 5.94873C88.2762 6.41101 88.1253 6.79303 87.8267 7.08196C87.5282 7.37409 87.1461 7.51855 86.6806 7.51855ZM85.5121 20.0996V9.02417H87.8267V20.0996H85.5121Z" fill="white"/>
<path id="Vector_7" d="M90.3628 20.1V9.02451H92.6324V10.6875H92.992C93.2007 10.238 93.5763 9.81744 94.1156 9.429C94.6549 9.04056 95.4575 8.84473 96.5201 8.84473C97.358 8.84473 98.1027 9.03093 98.7544 9.40653C99.4061 9.78213 99.9197 10.3086 100.292 10.9892C100.668 11.6698 100.854 12.4916 100.854 13.4483V20.1H98.5393V13.6281C98.5393 12.6682 98.2986 11.9619 97.8202 11.5061C97.3419 11.0502 96.6806 10.8223 95.8427 10.8223C94.8828 10.8223 94.1156 11.1369 93.5409 11.7661C92.9631 12.3953 92.6774 13.3102 92.6774 14.5077V20.1032H90.3628V20.1Z" fill="white"/>
<path id="Vector_8" d="M108.359 20.4143C107.236 20.4143 106.253 20.18 105.415 19.7081C104.578 19.2361 103.923 18.5684 103.451 17.7081C102.979 16.8477 102.745 15.8461 102.745 14.7097V14.44C102.745 13.2875 102.976 12.2795 103.441 11.4191C103.907 10.5588 104.552 9.89106 105.383 9.41915C106.215 8.94724 107.178 8.71289 108.269 8.71289C109.361 8.71289 110.266 8.94724 111.066 9.41915C111.868 9.89106 112.491 10.5459 112.94 11.3838C113.39 12.2217 113.614 13.204 113.614 14.3276V15.204H105.098C105.127 16.1768 105.454 16.9536 106.074 17.5283C106.696 18.1061 107.47 18.3918 108.398 18.3918C109.268 18.3918 109.923 18.196 110.362 17.8076C110.805 17.4191 111.146 16.9697 111.383 16.4593L113.293 17.448C113.085 17.8686 112.78 18.3084 112.385 18.7739C111.987 19.2394 111.467 19.6278 110.825 19.9424C110.179 20.257 109.358 20.4143 108.353 20.4143H108.359ZM105.123 13.4255H111.258C111.197 12.5877 110.899 11.9328 110.359 11.4609C109.82 10.989 109.117 10.7546 108.247 10.7546C107.377 10.7546 106.671 10.989 106.125 11.4609C105.579 11.9328 105.245 12.5877 105.127 13.4255H105.123Z" fill="white"/>
<path id="Vector_9" d="M35.6109 14.5108L22.33 27.7917C22.054 28.0678 21.5692 28.0678 21.2931 27.7917L12.4167 18.9121C12.0026 18.5012 11.7779 17.9522 11.7779 17.3712C11.7779 16.7901 12.0058 16.2412 12.4167 15.8302L12.7987 15.4482C12.8276 15.4161 12.8694 15.4001 12.9079 15.4001C12.9496 15.4001 12.9881 15.4161 13.017 15.445L21.4055 23.8367C21.6238 24.0517 21.9994 24.0517 22.2177 23.8367L31.6527 14.3985C31.8742 14.1769 31.8742 13.811 31.6527 13.5895L22.2177 4.15123C21.9994 3.93615 21.6238 3.93294 21.4087 4.15123L1.13584 24.4177C0.978535 24.575 0.760237 24.6168 0.554779 24.5333C0.349322 24.4466 0.224121 24.2572 0.224121 24.0357V3.94578C0.224121 3.72427 0.349322 3.53486 0.554779 3.4514C0.757026 3.36472 0.981745 3.40966 1.13905 3.56696L6.64146 9.06937C7.05237 9.48029 7.2803 10.0293 7.2803 10.6103C7.2803 11.1914 7.05237 11.7436 6.64146 12.1545L6.26264 12.5333C6.20807 12.5879 6.10213 12.5879 6.04434 12.5333L3.62701 10.116C3.52107 10.01 3.38303 10.01 3.29314 10.0485C3.20004 10.0871 3.10052 10.1834 3.10052 10.3342V17.644C3.10052 17.7949 3.20004 17.8912 3.29314 17.9298C3.38303 17.9651 3.52107 17.9683 3.62701 17.8623L21.2931 0.199385C21.5564 -0.0638576 22.0668 -0.0638576 22.33 0.199385L35.6109 13.4803C35.8967 13.7628 35.8967 14.2283 35.6109 14.514V14.5108Z" fill="#A09EED"/>
</g>
</g>
</g>
</g>
<defs>
<clipPath id="clip0_1001_428">
<rect width="114" height="28" fill="white" transform="translate(0.224121)"/>
</clipPath>
</defs>
</svg>
