<svg width="81" height="55" viewBox="0 0 81 55" fill="none" xmlns="http://www.w3.org/2000/svg">
<g id="Icon">
<g id="Clip path group">
<mask id="mask0_1001_365" style="mask-type:luminance" maskUnits="userSpaceOnUse" x="17" y="13" width="45" height="28">
<g id="clip0_304_11942">
<path id="Vector" d="M61.2927 13.5254H17.8022V40.3523H61.2927V13.5254Z" fill="white"/>
</g>
</mask>
<g mask="url(#mask0_1001_365)">
<g id="Group">
<path id="Vector_2" d="M34.834 22.1624C35.096 22.0471 35.3407 21.9165 35.5912 21.8396C36.7695 21.4784 37.9535 21.1327 39.1376 20.7868C39.5816 20.6562 40.0256 20.5255 40.4696 20.4025C40.5835 20.3718 40.629 20.3027 40.629 20.1259C40.629 19.7263 40.6062 19.3113 40.6803 18.9271C41.0104 17.1981 41.6024 15.6535 42.6783 14.5469C43.4354 13.7708 44.3177 13.4326 45.2285 13.8937C46.6175 14.6007 47.3803 16.6448 46.5037 18.735C46.4126 18.9502 46.2987 19.15 46.2077 19.3652C46.1678 19.4574 46.145 19.5572 46.1166 19.6572C46.1336 19.6726 46.1507 19.6879 46.1678 19.7033C46.2816 19.588 46.4012 19.4728 46.5151 19.3652C47.5397 18.3969 48.5586 17.4287 49.5833 16.4527C49.6687 16.3682 49.7598 16.2836 49.8337 16.176C49.959 15.9993 50.0273 16.0531 50.107 16.2452C50.4201 16.9752 50.6933 17.7437 51.0804 18.3969C51.365 18.8734 51.7976 19.2037 52.1733 19.5726C52.2018 19.6033 52.3327 19.5189 52.3782 19.442C52.7084 18.8503 52.9817 18.1971 53.3574 17.6668C54.6325 15.884 56.1922 14.8543 58.0707 15.0618C60.2396 15.3077 61.3097 17.4055 61.2927 19.8416C61.2869 20.7099 61.0764 21.5245 60.769 22.2776C60.6324 22.6081 60.5982 22.9231 60.6552 23.292C60.769 24.0221 60.8657 24.7598 60.9625 25.4975C60.9796 25.6205 60.9512 25.7664 60.9226 25.8894C60.4616 27.6492 59.5507 28.848 58.2984 29.5933C57.2966 30.1851 56.2491 30.5155 55.1676 30.1466C54.6838 29.9853 54.2226 29.6626 53.7615 29.3782C53.4655 29.1937 53.4826 29.163 53.272 29.4935C52.2758 31.0612 51.0063 31.9987 49.5321 32.4751C48.3651 32.8516 47.1981 32.8977 46.0312 32.4213C45.9458 32.3905 45.8035 32.4598 45.7352 32.552C45.1204 33.2897 44.4373 33.866 43.6289 34.1197C42.98 34.3271 42.3311 34.3041 41.6878 34.0197C41.6195 33.9889 41.5056 34.0274 41.4487 34.0889C40.7031 34.8804 39.8605 35.3414 38.9099 35.3261C38.5171 35.3185 38.13 35.1263 37.7372 35.0263C37.6746 35.0111 37.5836 35.0187 37.5437 35.0725C36.7866 35.9946 35.8985 36.5325 34.8853 36.5556C34.3958 36.5632 33.9005 36.3712 33.411 36.2328C33.2801 36.1944 33.2004 36.179 33.0808 36.3019C31.874 37.593 30.5192 38.2692 28.9651 37.8312C28.4472 37.6852 27.9576 37.3317 27.4566 37.0782C27.394 37.0474 27.3314 37.0013 27.2688 36.9706C27.2061 37.4546 27.1378 37.9081 27.098 38.3692C27.0809 38.5612 27.0297 38.6305 26.8931 38.6688C25.0829 39.1837 23.2727 39.6985 21.4624 40.2211C21.3258 40.2596 21.1892 40.3133 21.0128 40.3748C21.1039 39.6985 21.1836 39.0915 21.2689 38.4844C21.4511 37.1243 21.6332 35.764 21.8267 34.4117C21.8609 34.1734 21.7528 34.1887 21.6503 34.1504C20.8249 33.843 20.0507 33.4049 19.4132 32.5903C18.6162 31.5606 18.195 30.262 17.9559 28.8326C17.6371 26.8961 17.8364 25.0133 18.2974 23.1614C18.7187 21.4784 19.4018 20.0183 20.324 18.7504C21.1608 17.5977 22.0431 16.5526 23.1019 15.7688C24.3998 14.8081 25.7887 14.2702 27.2346 13.9321C28.709 13.594 30.1264 13.8015 31.4926 14.6161C33.1491 15.6073 34.1737 17.3365 34.6177 19.6802C34.7601 20.4257 34.7601 21.2249 34.8226 21.9933C34.8284 22.0163 34.834 22.0778 34.834 22.1624ZM44.1925 21.5706C44.0616 21.5937 43.9876 21.6013 43.9136 21.6245C43.35 21.7858 42.7808 21.9548 42.2172 22.1085C41.8016 22.2239 41.813 22.2239 41.7333 22.8001C41.5569 24.1065 41.369 25.4129 41.1926 26.7193C41.1015 27.4033 40.9649 28.0949 40.9592 28.7788C40.9478 29.6933 40.5835 30.3003 40.1223 30.8382C39.7524 31.261 39.297 31.0534 39.1604 30.4233C39.0977 30.1236 39.0807 29.7778 39.1149 29.4704C39.3368 27.6646 39.5759 25.8664 39.8093 24.0682C39.8662 23.6454 39.9288 23.2229 39.9915 22.7772C39.9004 22.7848 39.8377 22.7772 39.7808 22.7925C38.7903 23.0614 37.7999 23.3227 36.8151 23.6147C35.7278 23.9299 34.686 24.4139 33.8094 25.3746C32.1473 27.1957 31.6634 29.5857 32.3806 32.3137C32.3977 32.3905 32.375 32.5213 32.3351 32.575C31.5211 33.6893 30.5192 33.6816 29.7166 32.5442C29.1814 31.7911 28.8626 30.8767 28.6521 29.8777C28.6008 29.6395 28.6407 29.5165 28.7943 29.3935C29.2497 29.0247 29.7052 28.6482 30.1435 28.2409C31.2706 27.1881 32.1871 25.874 32.7904 24.1834C33.1491 23.1768 33.189 22.1085 33.1776 21.0173C33.1662 20.2796 33.0295 19.5957 32.7734 18.9578C32.0391 17.1367 30.8551 16.2375 29.3693 15.9532C28.6521 15.8149 27.9405 15.9225 27.2289 16.0684C24.508 16.6141 22.3733 18.4738 20.7396 21.3862C19.6807 23.2766 19.3278 25.4821 19.4701 27.8183C19.5441 29.0632 19.8742 30.1698 20.6143 31.0151C21.3827 31.8911 22.2707 32.1678 23.2442 32.1063C23.415 32.0985 23.5857 32.0755 23.7565 32.0524C23.5118 33.8891 23.267 35.6796 23.0279 37.47C23.1019 37.4854 23.1303 37.5007 23.1475 37.5007C23.9558 37.278 24.7641 37.055 25.5667 36.8169C25.6237 36.8015 25.692 36.6708 25.7034 36.5786C25.8627 35.3722 26.0165 34.1658 26.1701 32.9516C26.2384 32.3983 26.3011 31.8373 26.3637 31.2532C26.3922 31.2993 26.4092 31.3147 26.415 31.3301C26.4263 31.3762 26.4377 31.43 26.4491 31.4761C26.6597 32.4828 26.9329 33.4588 27.468 34.2426C28.2934 35.4644 29.301 36.056 30.5249 35.6642C31.4528 35.3646 32.1928 34.6037 32.7848 33.5971C32.8474 33.4971 32.91 33.3973 32.9726 33.2973C34.1623 34.9802 36.445 34.6498 37.2648 31.9219C37.3274 32.0217 37.3843 32.1139 37.447 32.1985C37.76 32.6135 38.0959 32.967 38.5456 33.0668C39.6214 33.3051 40.6917 32.4981 41.1015 31.1303C41.1299 31.0304 41.1755 30.9458 41.2267 30.8306C41.2723 30.8997 41.3007 30.9229 41.3121 30.9536C41.5853 31.5837 42.0009 31.9219 42.5246 32.0217C43.2191 32.1524 43.8168 31.8296 44.3519 31.2686C44.8073 30.7845 45.2115 30.2389 45.4619 29.4935C45.5131 29.5319 45.5586 29.5472 45.5872 29.5857C45.8889 30.0161 46.2702 30.262 46.6915 30.3849C47.3803 30.6001 48.0747 30.5694 48.7636 30.431C50.1753 30.1544 51.3536 29.3013 52.2246 27.7568C52.9304 26.5041 53.0671 25.1209 52.6628 23.6608C52.3782 22.6311 51.8261 21.8626 51.1658 21.2632C50.5396 20.6946 49.9362 20.1105 49.5207 19.2422C49.5093 19.2191 49.4865 19.2037 49.4524 19.1808C49.3897 19.2345 49.3272 19.296 49.2645 19.3574C48.7066 19.88 48.1488 20.4025 47.6023 20.9405C47.4827 21.0634 47.3689 21.2479 47.312 21.4323C47.0843 22.1931 46.885 22.9692 46.6573 23.7301C46.6118 23.876 46.4923 23.9989 46.3841 24.0989C46.145 24.3217 45.8547 24.46 45.6498 24.7291C45.0008 25.5744 44.8528 26.6578 44.9155 27.8259C44.9269 28.0103 44.9553 28.2332 44.8927 28.3638C44.7276 28.7019 44.5454 29.0324 44.3235 29.2937C43.9364 29.747 43.4866 29.5396 43.3842 28.8634C43.3215 28.456 43.3045 28.0103 43.3557 27.5953C43.5322 26.1814 43.7485 24.7752 43.9534 23.3688C44.0275 22.8155 44.1014 22.2239 44.1925 21.5706ZM55.4294 24.3063C55.8336 24.2141 56.2435 24.1604 56.6363 24.0221C57.9341 23.5532 58.9701 22.6235 59.5052 20.879C60.1143 18.8734 59.215 17.1135 57.604 17.1674C56.8127 17.1904 56.0841 17.5131 55.4294 18.1049C53.7786 19.5957 53.0842 21.7397 53.2037 24.3602C53.2663 25.7357 53.7559 26.8269 54.6496 27.5646C55.2416 28.0488 55.8848 28.164 56.5622 28.0411C57.6324 27.849 58.4749 27.1728 59.1067 26.0047C59.4199 25.4283 59.2263 24.875 59.1353 24.2526C59.0783 24.3217 59.0498 24.3448 59.0328 24.3756C58.6969 25.0287 58.2301 25.4668 57.6951 25.7742C57.2055 26.0584 56.6988 26.2121 56.1752 25.8971C55.7198 25.6205 55.3839 24.9135 55.4294 24.3063ZM42.24 19.3652C42.2343 20.0644 42.3596 20.2105 42.7409 20.0798C43.7997 19.7187 44.5739 18.8195 45.1374 17.5977C45.4334 16.9598 45.2798 16.3297 44.83 15.9916C44.4999 15.7457 44.1641 15.8379 43.8623 16.0915C43.2077 16.6371 42.8206 17.4901 42.4848 18.3892C42.3482 18.7504 42.2855 19.1654 42.24 19.3652Z" fill="white"/>
<path id="Vector_3" d="M44.1932 21.5706C44.1021 22.2239 44.0282 22.8155 43.9428 23.3996C43.7435 24.8059 43.5272 26.2121 43.345 27.6261C43.2938 28.0335 43.3109 28.4792 43.3735 28.8941C43.476 29.5704 43.9257 29.7778 44.3128 29.3245C44.5348 29.0632 44.7227 28.7327 44.882 28.3946C44.9446 28.264 44.9162 28.0335 44.9048 27.8567C44.8421 26.6886 44.9959 25.6051 45.6392 24.7598C45.8441 24.4908 46.1343 24.3525 46.3734 24.1297C46.4816 24.0297 46.6011 23.9068 46.6467 23.7608C46.8743 23 47.0736 22.2239 47.3013 21.4631C47.3582 21.2786 47.4664 21.0866 47.5917 20.9712C48.1381 20.4333 48.7016 19.9108 49.2538 19.3882C49.3165 19.3267 49.3791 19.273 49.4417 19.2115C49.4701 19.2423 49.4987 19.2499 49.51 19.273C49.9255 20.1491 50.5289 20.7253 51.1552 21.294C51.8211 21.8934 52.3676 22.6619 52.6522 23.6916C53.0564 25.1517 52.9255 26.5349 52.2139 27.7876C51.343 29.3321 50.1646 30.1774 48.7529 30.4618C48.0641 30.6001 47.3696 30.6231 46.6808 30.4157C46.2596 30.285 45.8782 30.0468 45.5765 29.6165C45.548 29.578 45.5024 29.5626 45.4513 29.5243C45.2008 30.2696 44.7966 30.8153 44.3412 31.2994C43.8061 31.8604 43.2028 32.1832 42.5139 32.0525C41.9902 31.9526 41.5747 31.6145 41.3014 30.9844C41.2844 30.9536 41.2616 30.9229 41.2161 30.8614C41.1648 30.9766 41.1193 31.0688 41.0909 31.161C40.681 32.5289 39.6108 33.3357 38.535 33.0976C38.0852 32.9976 37.7493 32.6441 37.4363 32.2293C37.3736 32.1447 37.3167 32.0525 37.2541 31.9526C36.4343 34.6806 34.1517 35.011 32.9619 33.3281C32.8994 33.4279 32.8311 33.5279 32.7741 33.6277C32.1821 34.6345 31.4421 35.3952 30.5142 35.695C29.296 36.0868 28.2828 35.4952 27.4573 34.2732C26.928 33.4818 26.649 32.5135 26.4384 31.5069C26.4271 31.4608 26.4213 31.4069 26.4043 31.3608C26.3986 31.3455 26.3872 31.3301 26.353 31.284C26.2847 31.868 26.2278 32.4291 26.1595 32.9822C26.0058 34.1888 25.8521 35.4029 25.6927 36.6094C25.6813 36.7016 25.613 36.8323 25.5561 36.8477C24.7478 37.0858 23.9394 37.3087 23.1368 37.5315C23.114 37.5393 23.0913 37.5239 23.0172 37.5008C23.2563 35.7103 23.4954 33.9197 23.7458 32.0832C23.5751 32.0986 23.4043 32.1217 23.2335 32.1371C22.2602 32.1985 21.3721 31.9295 20.6037 31.0458C19.8636 30.2005 19.5334 29.0939 19.4595 27.849C19.3229 25.5129 19.67 23.3074 20.7289 21.4169C22.3627 18.5045 24.503 16.6449 27.2182 16.0992C27.9298 15.9533 28.6414 15.8457 29.3587 15.984C30.8444 16.2606 32.0284 17.1674 32.7628 18.9886C33.019 19.6265 33.1556 20.3104 33.167 21.0481C33.1783 22.1393 33.1384 23.2075 32.7798 24.2141C32.1821 25.8971 31.2656 27.2111 30.1328 28.2716C29.6946 28.679 29.2391 29.0478 28.7837 29.4243C28.63 29.5473 28.5901 29.6702 28.6414 29.9085C28.8577 30.8998 29.1708 31.8143 29.7059 32.575C30.5142 33.7123 31.5104 33.7199 32.3244 32.6057C32.3643 32.552 32.3871 32.4137 32.3699 32.3445C31.6527 29.6165 32.1366 27.2189 33.7988 25.4053C34.6754 24.4447 35.7171 23.9606 36.8044 23.6455C37.7892 23.3612 38.7854 23.0999 39.7701 22.8233C39.8271 22.8079 39.8897 22.8155 39.9808 22.8079C39.9181 23.2536 39.8556 23.6762 39.7987 24.0989C39.5652 25.8971 39.3205 27.6953 39.1042 29.5012C39.0643 29.8085 39.0814 30.1544 39.1497 30.4541C39.2863 31.0919 39.7417 31.2994 40.1117 30.869C40.5728 30.3389 40.9371 29.7317 40.9485 28.8095C40.9599 28.1179 41.0909 27.4341 41.1819 26.7501C41.3583 25.4437 41.5462 24.1373 41.7227 22.8309C41.8023 22.2546 41.791 22.2546 42.2065 22.1393C42.7701 21.978 43.3394 21.8165 43.903 21.6552C43.9883 21.6014 44.0623 21.5938 44.1932 21.5706ZM27.4004 27.7644C27.4403 27.7644 27.4687 27.7798 27.4858 27.7722C28.5218 27.2419 29.4099 26.4734 29.9962 25.1594C31.055 22.7848 30.1841 19.8878 28.2316 19.3114C27.2182 19.0117 26.2221 19.1501 25.2373 19.5497C23.8597 20.1106 22.6473 21.002 21.8047 22.6465C21.2981 23.6301 20.9964 24.6983 21.0192 25.9125C21.0363 26.7732 21.2298 27.5263 21.8047 28.0181C22.9261 28.9786 24.4859 27.995 24.6226 26.2199C24.6681 25.6512 24.6168 25.0595 24.5827 24.4832C24.5713 24.2603 24.5713 24.1219 24.7648 24.0989C24.9186 24.0758 25.0666 24.0221 25.2202 23.9914C26.1083 23.853 26.8084 24.391 27.1841 25.4898C27.4004 26.1277 27.4232 26.7962 27.3948 27.4724C27.3948 27.5646 27.4004 27.6646 27.4004 27.7644ZM47.7852 23.9145C48.6504 24.2756 48.9293 24.7367 48.9237 25.7511C48.9237 26.4043 48.9237 26.4043 48.4341 26.3121C47.7567 26.1814 47.2159 26.7578 47.0907 27.7491C47.0053 28.4484 47.4721 29.2091 48.0698 29.3475C48.9635 29.555 49.9427 28.9018 50.4094 27.7798C50.8876 26.6349 50.7794 25.3515 50.1362 24.3295C49.6068 23.4918 48.8382 23.1229 48.2292 22.4237C48.0755 22.9462 47.9332 23.4227 47.7852 23.9145ZM35.2048 31.9065C35.5749 31.9141 35.8481 31.676 36.0928 31.3608C36.4856 30.846 36.6621 30.1852 36.7702 29.4858C36.9638 28.2025 37.1517 26.9191 37.3452 25.6435C37.3908 25.3361 37.3736 25.29 37.1403 25.3131C36.3774 25.4053 35.7285 25.8125 35.2333 26.6117C34.6925 27.4878 34.442 28.5175 34.3224 29.6319C34.2599 30.2159 34.3054 30.7768 34.5046 31.2994C34.647 31.6682 34.869 31.9373 35.2048 31.9065Z" fill="#2D29D7"/>
<path id="Vector_4" d="M55.4259 24.3068C55.3803 24.9139 55.7161 25.6209 56.1715 25.8898C56.6952 26.2049 57.2019 26.0512 57.6914 25.7668C58.2265 25.4595 58.6876 25.0215 59.0292 24.3682C59.0463 24.3375 59.0747 24.3145 59.1316 24.2453C59.2227 24.8601 59.4162 25.4133 59.1032 25.9974C58.4713 27.1732 57.6288 27.8494 56.5586 28.0339C55.8755 28.1568 55.238 28.0415 54.646 27.5574C53.758 26.8273 53.2627 25.7285 53.2001 24.3529C53.0805 21.7325 53.775 19.5884 55.4259 18.0976C56.0804 17.5059 56.8092 17.1832 57.6003 17.1601C59.2057 17.114 60.1107 18.8661 59.5017 20.8718C58.9722 22.6161 57.9362 23.5461 56.6326 24.0147C56.2398 24.1684 55.83 24.2145 55.4259 24.3068ZM55.4145 22.7161C55.4429 22.7469 55.4543 22.7622 55.4543 22.7622C55.5454 22.7469 55.6364 22.7315 55.7275 22.7161C56.3594 22.6008 56.9344 22.2858 57.4125 21.7017C57.7597 21.279 58.0216 20.7796 58.0102 20.111C57.9988 19.5039 57.7427 19.2195 57.2987 19.2964C57.1621 19.3195 57.0311 19.3886 56.9059 19.4655C55.8641 20.1033 55.6478 21.4251 55.4145 22.7161Z" fill="#2D29D7"/>
<path id="Vector_5" d="M42.2394 19.3653C42.285 19.1655 42.3476 18.7505 42.4843 18.3894C42.8144 17.4902 43.2072 16.6373 43.8618 16.0916C44.1635 15.8381 44.4937 15.7459 44.8295 15.9918C45.285 16.3299 45.433 16.9601 45.137 17.5978C44.5734 18.8197 43.7992 19.7188 42.7404 20.08C42.359 20.2106 42.2338 20.0646 42.2394 19.3653Z" fill="#2D29D7"/>
<path id="Vector_6" d="M27.3983 27.7649C27.3983 27.6573 27.3925 27.5651 27.3983 27.4652C27.4267 26.7812 27.4039 26.1127 27.1876 25.4826C26.8119 24.3838 26.1118 23.8534 25.2237 23.9842C25.0701 24.0071 24.9221 24.0686 24.7683 24.0917C24.5748 24.1225 24.5748 24.253 24.5862 24.476C24.6203 25.0522 24.6716 25.644 24.6261 26.2127C24.4895 27.9878 22.924 28.9714 21.8082 28.0108C21.2276 27.5113 21.0341 26.7582 21.0227 25.8976C20.9999 24.6911 21.3017 23.6153 21.8082 22.6317C22.6508 20.9948 23.8632 20.0957 25.2408 19.5347C26.2257 19.1351 27.2161 18.9968 28.2351 19.2965C30.1933 19.8728 31.0642 22.77 29.9997 25.1445C29.4135 26.4662 28.5197 27.2347 27.4894 27.7572C27.4666 27.7802 27.4381 27.7726 27.3983 27.7649Z" fill="white"/>
<path id="Vector_7" d="M47.7838 23.9146C47.9318 23.4228 48.074 22.9464 48.2278 22.4238C48.8368 23.1231 49.611 23.4919 50.1347 24.3296C50.778 25.3516 50.8861 26.635 50.408 27.7799C49.9412 28.9019 48.9621 29.5552 48.0684 29.3476C47.4706 29.2093 47.0039 28.4486 47.0892 27.7492C47.2088 26.758 47.7496 26.1739 48.4327 26.3122C48.9222 26.4045 48.9222 26.4045 48.9222 25.7512C48.9279 24.7446 48.649 24.2835 47.7838 23.9146Z" fill="white"/>
<path id="Vector_8" d="M35.2054 31.9064C34.8695 31.9372 34.6475 31.6759 34.5052 31.2917C34.306 30.7691 34.2605 30.2082 34.323 29.6242C34.4426 28.5176 34.6931 27.4801 35.2338 26.6041C35.7291 25.805 36.3723 25.39 37.1409 25.3054C37.3742 25.2747 37.3913 25.3285 37.3458 25.6359C37.1522 26.9192 36.97 28.2024 36.7708 29.4781C36.6626 30.1775 36.4862 30.8383 36.0934 31.3531C35.8487 31.6759 35.5754 31.9142 35.2054 31.9064Z" fill="white"/>
<path id="Vector_9" d="M55.4204 22.7162C55.6538 21.4252 55.8644 20.1035 56.9118 19.4656C57.0371 19.3887 57.1737 19.3196 57.3046 19.2965C57.7486 19.2121 58.0048 19.5041 58.0162 20.1111C58.0276 20.7797 57.7657 21.2792 57.4185 21.7019C56.9403 22.2859 56.3653 22.5933 55.7335 22.7162C55.6425 22.7316 55.5514 22.747 55.4603 22.7624C55.4603 22.7624 55.4489 22.747 55.4204 22.7162Z" fill="white"/>
</g>
</g>
</g>
</g>
</svg>
