<svg width="81" height="42" viewBox="0 0 81 42" fill="none" xmlns="http://www.w3.org/2000/svg">
<g id="Icon">
<g id="Clip path group">
<mask id="mask0_1001_378" style="mask-type:luminance" maskUnits="userSpaceOnUse" x="5" y="10" width="71" height="20">
<g id="clip0_304_11934">
<path id="Vector" d="M75.3994 10.917H5.84814V29.8399H75.3994V10.917Z" fill="white"/>
</g>
</mask>
<g mask="url(#mask0_1001_378)">
<g id="Group">
<g id="Mask group">
<mask id="mask1_1001_378" style="mask-type:luminance" maskUnits="userSpaceOnUse" x="6" y="10" width="70" height="20">
<g id="Group_2">
<path id="Vector_2" d="M75.2171 10.917H6.02051V29.8399H75.2171V10.917Z" fill="white"/>
</g>
</mask>
<g mask="url(#mask1_1001_378)">
<g id="Group_3">
<path id="Vector_3" d="M10.8085 17.3133C9.1581 17.3133 8.34794 18.8048 8.34794 20.7964V25.7875H6.02051V15.2552H8.30717V17.9877H8.34688C8.83512 16.3076 9.80837 14.9502 11.3096 14.9502C12.3654 14.9502 12.8107 15.3282 12.8107 15.3282L11.7603 17.4974C11.7603 17.4974 11.4254 17.3133 10.8085 17.3133ZM38.9449 18.7591V25.7863H36.6775V19.6143C36.6775 17.8427 36.1357 16.9047 34.7514 16.9047C33.3178 16.9047 32.6247 18.0912 32.6247 20.3671V25.7852H30.3777V19.6143C30.3777 17.9114 29.8422 16.9047 28.472 16.9047C26.9075 16.9047 26.3054 18.3102 26.3054 20.3671V25.7852H24.0188V15.2552H26.3054V17.6402H26.3258C26.682 15.9896 27.6543 14.9708 29.2949 14.9708C30.9217 14.9708 31.9818 15.8675 32.3843 17.4571C32.7674 15.9274 33.7867 14.9708 35.3534 14.9708C37.5392 14.9708 38.9449 16.3763 38.9449 18.7591ZM17.3852 14.9502C15.2809 14.9502 13.9042 15.9634 13.2765 17.7927L15.2133 18.515C15.5663 17.4113 16.3024 16.7827 17.4259 16.7827C18.69 16.7827 19.4326 17.3535 19.4326 18.2296C19.4326 19.1251 18.8413 19.3125 17.5064 19.5337C16.0213 19.7788 12.4899 19.8594 12.4899 22.9144C12.4899 24.7044 13.9493 26.0511 16.1415 26.0511C17.7897 26.0511 18.9121 25.3603 19.4315 24.0747H19.4519V25.7863H21.7192V19.3093C21.7181 16.4754 20.3275 14.9502 17.3852 14.9502ZM19.4916 20.8291C19.4916 23.0374 18.426 24.456 16.7231 24.456C15.5192 24.456 14.797 23.7631 14.797 22.7641C14.797 21.827 15.5396 21.1767 16.9635 20.9086C18.4206 20.6341 19.1546 20.2952 19.4916 19.4825V20.8291ZM47.01 14.9708C45.2759 14.9708 44.1298 15.9481 43.6395 17.4168V15.2552H41.2316V29.8404H43.619V23.6259H43.6395C44.1706 25.2166 45.2769 26.0913 47.01 26.0913C49.758 26.0913 51.7249 23.7697 51.7249 20.4893C51.7239 17.2315 49.758 14.9708 47.01 14.9708ZM46.4176 24.1368C44.514 24.1368 43.4581 22.7204 43.4581 20.5207C43.4581 18.3211 44.6396 16.9047 46.4176 16.9047C48.1946 16.9047 49.3771 18.3897 49.3771 20.5207C49.3771 22.6529 48.1957 24.1368 46.4176 24.1368Z" fill="white"/>
<path id="Vector_4" d="M75.372 25.7381V25.8039L66.0533 25.8073V25.7381C67.3971 24.9599 68.3246 24.1673 69.1591 23.3389H72.9856L75.372 25.7381ZM73.0629 13.293L70.701 10.917H70.6323C70.6323 10.917 70.6722 15.3449 66.7064 19.372C62.8257 23.3132 58.2622 23.3222 58.2622 23.3222V23.3912L60.6685 25.8083C60.6685 25.8083 65.1656 25.854 69.1381 21.8581C73.0962 17.8756 73.0629 13.293 73.0629 13.293Z" fill="white"/>
</g>
</g>
</g>
</g>
</g>
</g>
</g>
</svg>
