<svg width="28" height="21" viewBox="0 0 28 21" fill="none" xmlns="http://www.w3.org/2000/svg">
<g id="Icon" clip-path="url(#clip0_1001_406)">
<path id="Vector" d="M0.224121 19.9353V14.0181C0.224121 12.3379 0.552855 10.6212 1.21033 8.86795C1.86779 7.1147 2.73529 5.4619 3.8128 3.90955C4.89032 2.35719 6.05915 1.06052 7.31929 0.0195312L12.4695 3.06032C11.4468 4.66747 10.6066 6.34766 9.94914 8.1009C9.30996 9.85419 8.99036 11.8083 8.99036 13.9633V19.9353H0.224121ZM14.0583 19.9353V14.0181C14.0583 12.3379 14.3871 10.6212 15.0445 8.86795C15.702 7.1147 16.5695 5.4619 17.647 3.90955C18.7245 2.35719 19.8933 1.06052 21.1535 0.0195312L26.3037 3.06032C25.2809 4.66747 24.4408 6.34766 23.7834 8.1009C23.1441 9.85419 22.8246 11.8083 22.8246 13.9633V19.9353H14.0583Z" fill="#C698F6"/>
</g>
<defs>
<clipPath id="clip0_1001_406">
<rect width="27" height="20.25" fill="white" transform="translate(0.224121 0.0195312)"/>
</clipPath>
</defs>
</svg>
